<?xml version="1.0" encoding="iso-8859-1"?>
<!-- Generator: Adobe Illustrator 19.0.0, SVG Export Plug-In . SVG Version: 6.00 Build 0)  -->
<svg version="1.1" id="Capa_1" xmlns="http://www.w3.org/2000/svg" xmlns:xlink="http://www.w3.org/1999/xlink" x="0px" y="0px"
	 viewBox="0 0 512 512" style="enable-background:new 0 0 512 512;" xml:space="preserve">
<g>
	<g>
		<g>
			<path d="M394.667,277.333c-64.698,0-117.333,52.635-117.333,117.333S329.969,512,394.667,512S512,459.365,512,394.667
				S459.365,277.333,394.667,277.333z M437.333,405.333h-32v32c0,5.896-4.771,10.667-10.667,10.667S384,443.229,384,437.333v-32h-32
				c-5.896,0-10.667-4.771-10.667-10.667S346.104,384,352,384h32v-32c0-5.896,4.771-10.667,10.667-10.667
				s10.667,4.771,10.667,10.667v32h32c5.896,0,10.667,4.771,10.667,10.667S443.229,405.333,437.333,405.333z"/>
			<path d="M261.823,434.292c-1.344-4.521-5.5-7.625-10.219-7.625H42.667v-320h383.979l0.01,144.927
				c0,4.719,3.104,8.875,7.625,10.219c6.438,1.917,12.917,4.448,19.792,7.719c3.302,1.552,7.208,1.323,10.281-0.615
				c3.094-1.958,4.969-5.365,4.969-9.021l-0.01-217.219c0-23.521-19.135-42.656-42.656-42.656L42.667,0C19.135,0,0,19.135,0,42.667
				v384c0,23.531,19.135,42.667,42.667,42.667h217.229c3.656,0,7.063-1.875,9.021-4.969c1.948-3.094,2.188-6.979,0.615-10.281
				C266.271,447.25,263.76,440.771,261.823,434.292z M138.667,42.667c5.891,0,10.667,4.775,10.667,10.667
				c0,5.891-4.776,10.667-10.667,10.667S128,59.224,128,53.333C128,47.441,132.776,42.667,138.667,42.667z M96,42.667
				c5.891,0,10.667,4.775,10.667,10.667C106.667,59.224,101.891,64,96,64s-10.667-4.776-10.667-10.667
				C85.333,47.441,90.109,42.667,96,42.667z M53.333,42.667C59.224,42.667,64,47.441,64,53.333C64,59.224,59.224,64,53.333,64
				s-10.667-4.776-10.667-10.667C42.667,47.441,47.443,42.667,53.333,42.667z"/>
		</g>
	</g>
</g>
<g>
</g>
<g>
</g>
<g>
</g>
<g>
</g>
<g>
</g>
<g>
</g>
<g>
</g>
<g>
</g>
<g>
</g>
<g>
</g>
<g>
</g>
<g>
</g>
<g>
</g>
<g>
</g>
<g>
</g>
</svg>
