<svg xmlns="http://www.w3.org/2000/svg" viewBox="0 0 306.79 318.94"><defs><style>.cls-1{fill:#fff;}.cls-2{fill:#a6bf48;}.cls-3{fill:#66a662;}.cls-4{fill:#008c84;opacity:0.3;}.cls-5{fill:none;stroke:#66a662;stroke-miterlimit:10;stroke-width:2px;}.cls-6{fill:#ddd;}</style></defs><g id="Layer_2" data-name="Layer 2"><g id="Layer_2-2" data-name="Layer 2"><path class="cls-1" d="M181.72,318.94a45.11,45.11,0,0,1-18.05-3.78,32.63,32.63,0,0,1-10.18,1.62,36.44,36.44,0,0,1-16.44-4,43.11,43.11,0,0,1-15-12.87h-.38a37,37,0,0,1-16.82-4,51.7,51.7,0,0,1-17.23,2.62c-2.78,0-5.72-.15-9.25-.47s-9.87-.9-16-4.73a62.72,62.72,0,0,1-17.21,2.45,59.85,59.85,0,0,1-19.68-3.28C12.49,288,3.46,278.93.79,267.66a29.56,29.56,0,0,1,5.74-25.28,30.22,30.22,0,0,1,3.59-3.82V126L14,127.32c-.07-1.26-.08-2.55,0-3.87A60.34,60.34,0,0,1,19.45,100C23,92.21,27.92,86.84,34,84a21.69,21.69,0,0,1,8.62-2,46.16,46.16,0,0,1,9.68-14.35c.31-.31.62-.62.94-.92a21.57,21.57,0,0,1-.2-5.5c.53-5.82,3.25-11.54,8.09-17A51.32,51.32,0,0,1,77.49,32,30.92,30.92,0,0,1,90.73,28.7a23.25,23.25,0,0,1,5.91.76,20.16,20.16,0,0,1,4.43,1.76A32.52,32.52,0,0,1,104,29.45a42.72,42.72,0,0,1,10.08-3.87,22.65,22.65,0,0,1,6.75-16.23c4.61-4.57,11.1-7.5,19.3-8.72A60.74,60.74,0,0,1,164.2,2c8.27,2.19,14.4,6.07,18.23,11.52a21.49,21.49,0,0,1,3,6.16l.21,0a42.89,42.89,0,0,1,12.79,4.89,22.93,22.93,0,0,1,11.46-4.2q1-.09,2.16-.09c5.84,0,12,2,18.23,5.81a60.51,60.51,0,0,1,17.58,16.51c4.93,7,7.14,13.9,6.56,20.54a19.74,19.74,0,0,1-.32,2.31q1.29,1.33,2.49,2.85a47.61,47.61,0,0,1,6.3,10.55,23.91,23.91,0,0,1,11.92,4.32c5.6,3.95,9.87,10.23,12.67,18.65a65.58,65.58,0,0,1,3.11,26.06c-.08,1-.19,2-.34,3L304.6,126V186.2l-3.87,3.87h3.87v48.19a30.63,30.63,0,0,1,1.67,17,35.75,35.75,0,0,1-3.18,20.43A34.9,34.9,0,0,1,282.51,294a33,33,0,0,1-10.1,1.56,35.4,35.4,0,0,1-13.9-2.89,38,38,0,0,1-4,2.56c-8.77,4.94-18.13,6.14-25.31,6.63-1.86.13-3.58.19-5.26.19a56.49,56.49,0,0,1-7.62-.5,44,44,0,0,1-20.19,15A42.82,42.82,0,0,1,181.72,318.94Z"/><path d="M181.72,308.94A35.9,35.9,0,0,1,164,304.26a22.17,22.17,0,0,1-10.5,2.52,27.4,27.4,0,0,1-12.32-3,34.8,34.8,0,0,1-14.46-14.33,26.83,26.83,0,0,1-5,.46,27.91,27.91,0,0,1-16.13-5.07c-4.81,2.48-10.75,3.69-17.92,3.69-2.5,0-5.18-.14-8.44-.43s-8.09-.74-12.48-3.73a16.19,16.19,0,0,1-2.52-2.11,53.14,53.14,0,0,1-19,3.52A50.85,50.85,0,0,1,28.51,283c-10.1-3.51-17-10.22-19-18.43A21,21,0,0,1,29.67,239a18.32,18.32,0,0,1,3.59.37c.85-4.71,2.75-10.85,10.91-15.21a24.47,24.47,0,0,1,11.53-2.84A26,26,0,0,1,67.16,224a26.1,26.1,0,0,1,16.45-5.81,24.18,24.18,0,0,1,8.48,1.51,29.1,29.1,0,0,1,9.79-1.67A30.38,30.38,0,0,1,115,221a39.76,39.76,0,0,1,6.79-5.76,60.78,60.78,0,0,1,33.88-10.33,59.11,59.11,0,0,1,12.91,1.42c8.43,1.89,15.43,5.76,20.22,11a31.51,31.51,0,0,1,11.61-2,51.14,51.14,0,0,1,7.6.6c2.54.38,7.27,1.08,11.41,3.88a17.37,17.37,0,0,1,3,2.6,26.33,26.33,0,0,1,5-.48,27.07,27.07,0,0,1,17.73,6.48,50.16,50.16,0,0,1,21-4.63,46.44,46.44,0,0,1,5,.26c8.23.85,15.1,3.85,19.88,8.66a22.34,22.34,0,0,1,6,21.32A26.37,26.37,0,0,1,295,270.78a25.89,25.89,0,0,1-15.2,13.63,24.24,24.24,0,0,1-7.36,1.14,26.89,26.89,0,0,1-15.1-4.78,30.49,30.49,0,0,1-7.19,5.6c-7.2,4.05-15.28,5.06-21.52,5.49-1.65.11-3.16.17-4.65.17a41.21,41.21,0,0,1-11.8-1.57,35.42,35.42,0,0,1-19,16.54A33.89,33.89,0,0,1,181.72,308.94Z"/><path d="M181.72,312.94a38.81,38.81,0,0,1-17.8-4.31,25.64,25.64,0,0,1-10.43,2.15,30.47,30.47,0,0,1-13.69-3.31,37.8,37.8,0,0,1-14.66-13.73,30.38,30.38,0,0,1-3.44.19,31.18,31.18,0,0,1-16.37-4.63c-4.93,2.19-10.74,3.25-17.68,3.25-2.6,0-5.36-.14-8.71-.44s-8.87-.81-13.9-4.23a17.4,17.4,0,0,1-1.52-1.16,56.49,56.49,0,0,1-18.28,3.08,54.07,54.07,0,0,1-17.71-2.94C16.43,283,8.82,275.51,6.63,266.28a24,24,0,0,1,23-29.25c.42,0,.83,0,1.25,0,1.32-4.92,4.2-10.44,11.83-14.53a27.52,27.52,0,0,1,13-3.19,29.3,29.3,0,0,1,11.06,2.18,29.18,29.18,0,0,1,16.85-5.34,27.1,27.1,0,0,1,8.5,1.34,31.92,31.92,0,0,1,9.77-1.5,33.75,33.75,0,0,1,12.4,2.38,45.31,45.31,0,0,1,5.79-4.66,63.81,63.81,0,0,1,35.57-10.85,62.08,62.08,0,0,1,13.57,1.49,42.36,42.36,0,0,1,20.37,10.44,36.23,36.23,0,0,1,10.8-1.52,55.74,55.74,0,0,1,8,.63c2.78.42,7.94,1.18,12.65,4.36a21.72,21.72,0,0,1,2.39,1.88,29.68,29.68,0,0,1,4-.27,30.23,30.23,0,0,1,18.19,6,53.51,53.51,0,0,1,20.5-4.14,52.21,52.21,0,0,1,5.32.27c8.92.93,16.43,4.23,21.7,9.54a25.26,25.26,0,0,1,7,23.52,29.46,29.46,0,0,1-2.48,18,28.89,28.89,0,0,1-17,15.2,27,27,0,0,1-8.27,1.28,29.9,29.9,0,0,1-14.69-4,33,33,0,0,1-6.13,4.42c-7.73,4.35-16.23,5.42-22.78,5.87-1.71.12-3.3.18-4.86.18a46.79,46.79,0,0,1-10.36-1.09,38.45,38.45,0,0,1-19.45,15.89A37.08,37.08,0,0,1,181.72,312.94Z"/><path d="M281.8,103.72c-2.39-7.18-5.9-12.44-10.45-15.65a17.75,17.75,0,0,0-10.17-3.28,17,17,0,0,0-2.37.17A41.43,41.43,0,0,0,251.89,72a28.88,28.88,0,0,0-4.6-4.69,15.37,15.37,0,0,0,1.17-4.71c.45-5.19-1.4-10.77-5.49-16.57a54.42,54.42,0,0,0-15.82-14.85c-5.31-3.27-10.39-4.92-15.09-4.92-.56,0-1.11,0-1.66.07A16.53,16.53,0,0,0,199,32.18c-.38-.3-.78-.59-1.19-.87a36.48,36.48,0,0,0-13.39-5.74,28,28,0,0,0-4.1-.54,15.6,15.6,0,0,0-2.82-8.09c-3-4.27-8-7.35-14.85-9.17A54.66,54.66,0,0,0,141,6.57c-6.9,1-12.27,3.39-15.95,7a16.58,16.58,0,0,0-5,12A14.85,14.85,0,0,0,121,30.5l-.24,0a36.45,36.45,0,0,0-14,4.22,24.82,24.82,0,0,0-5.55,4,14.21,14.21,0,0,0-6.19-3.46,17,17,0,0,0-4.37-.56,25,25,0,0,0-10.68,2.69A45.19,45.19,0,0,0,65.58,48.23c-4,4.46-6.19,9-6.6,13.55a15.31,15.31,0,0,0,1,7.09,27.17,27.17,0,0,0-3.49,3,40.27,40.27,0,0,0-8.85,13.54c-.4,1-.74,2-1,3a15.61,15.61,0,0,0-3.51-.4,15.78,15.78,0,0,0-6.62,1.47c-4.72,2.21-8.63,6.6-11.61,13A54.31,54.31,0,0,0,20,123.62c-.18,6.26.93,11.49,3.31,15.58.26.46.55.92.85,1.35a16.51,16.51,0,0,0,10.44,6.89c-.13.77-.22,1.57-.29,2.39a44.87,44.87,0,0,0,2.13,17.8,34.77,34.77,0,0,0,1.27,3.27,15.47,15.47,0,0,0-11.16,8.72c-2.19,4.73-2.37,10.6-.51,17.45a54.38,54.38,0,0,0,9.8,19.36c4.33,5.47,9.06,8.93,14.07,10.29a17,17,0,0,0,4.48.6,15.37,15.37,0,0,0,13.79-8A42.55,42.55,0,0,0,80.5,230.85l.15.09H224.09a45.37,45.37,0,0,0,8.18-7.22,35.68,35.68,0,0,0,2.6-3.3,15.81,15.81,0,0,0,4.5.66q.69,0,1.38-.06c5.19-.47,10.36-3.25,15.36-8.29A54.4,54.4,0,0,0,268,194.57c2.57-6.49,3.2-12.32,1.87-17.33a16.5,16.5,0,0,0-7.5-10.07,42.52,42.52,0,0,0,3.8-16.37c0-.39,0-.77,0-1.14h0a16.4,16.4,0,0,0,11.52-4.81,20,20,0,0,0,3.15-4.16,31.73,31.73,0,0,0,3.75-13.31A59.67,59.67,0,0,0,281.8,103.72Zm-42.87,2.69a.56.56,0,0,1,0-.12l.25.18Z"/><path class="cls-2" d="M275.66,126.62c-.37,4.46-1.49,9.06-4.3,11.87s-7.67,3.09-10.26-.41c-1.8-2.42-2.08-5.85-2-9,0-.44,0-.88.07-1.32a5.23,5.23,0,0,0-6.42-5.58A35.21,35.21,0,0,0,235,132c.1,1.72.17,3.44.17,5.19a85.23,85.23,0,0,1-.81,11.59,25.09,25.09,0,0,0,5.74,2.48c.63.19,1.27.36,1.91.5a3.34,3.34,0,0,0,2.62-.5,3.38,3.38,0,0,0,1.47-3.39,7,7,0,0,1-.12-1.19c0-2.36.8-4.94,2.51-6.27,2.21-1.71,5.24-.71,6.82,1.57a12.76,12.76,0,0,1,1.88,6.77c0,.58,0,1.17,0,1.75a33.41,33.41,0,0,1-3,13c-1.24,2.69-3,5.29-5.36,6.4a4.46,4.46,0,0,1-6.28-2.57c-.57-1.91,0-4.11.77-6,.1-.27.22-.53.34-.8a3.46,3.46,0,0,0-2.73-4.92,25.83,25.83,0,0,0-7.81.25,84.26,84.26,0,0,1-5.51,16.44,31.91,31.91,0,0,0,12.17,13.5,4.61,4.61,0,0,0,7-3,10.6,10.6,0,0,1,.4-1.57c1.08-3,3.3-5.92,6.1-6.81,3.6-1.15,7,1.51,8,5.14s0,7.88-1.54,11.72a45.33,45.33,0,0,1-9.89,15.14c-2.83,2.84-6.23,5.34-9.78,5.66a6,6,0,0,1-6.8-6.18c.16-2.69,1.94-5.21,3.77-7.32q.39-.45.81-.87a4.68,4.68,0,0,0-1.19-7.51,31.75,31.75,0,0,0-17.29-3.53A85.8,85.8,0,0,1,207.6,199.8a28.06,28.06,0,0,0,4.46,8.41,3.69,3.69,0,0,0,6.1-.38,6.94,6.94,0,0,1,.73-1.07c1.63-2,4.1-3.54,6.45-3.45,3,.12,4.84,3.05,4.57,6s-2.17,5.92-4.37,8.39A36.38,36.38,0,0,1,214,226.42c-2.91,1.36-6.15,2.31-8.91,1.57a4.82,4.82,0,0,1-3.41-6.5c.85-2,2.88-3.39,4.83-4.47.28-.15.56-.3.85-.43a3.75,3.75,0,0,0,1.16-6,27.88,27.88,0,0,0-7.22-5.54,84.4,84.4,0,0,1-12.48,7.79,35.92,35.92,0,0,0-.63,18.08H180a35.17,35.17,0,0,0-10.69-11,84.53,84.53,0,0,1-16.95,2.12,22,22,0,0,0-.89,5.32,2.79,2.79,0,0,0,3.72,2.74,7,7,0,0,1,.94-.26,6.6,6.6,0,0,1,5.33,1.07H137.8A3.42,3.42,0,0,1,139,230a8,8,0,0,1,5-.24l.7.16a2.83,2.83,0,0,0,3.58-2.9,21.21,21.21,0,0,0-.87-5,84.79,84.79,0,0,1-20.41-3.2,25.87,25.87,0,0,0-8.11,10.87,3.31,3.31,0,0,0-.27,1.21H98.23a4.57,4.57,0,0,1,3.94-3.59c2.14-.25,4.36.8,6.27,2,.26.16.53.33.79.51a3.72,3.72,0,0,0,5.73-2,25.63,25.63,0,0,0,.65-13.1,84.22,84.22,0,0,1-17.46-10.49,26.07,26.07,0,0,0-6.41,5.15,3.41,3.41,0,0,0,1.32,5.48,7.69,7.69,0,0,1,1.09.49c2,1.17,3.88,3.17,4.17,5.32.38,2.77-2,4.89-4.76,5.13s-5.73-1-8.34-2.63a33.59,33.59,0,0,1-9.74-9.14c-1.71-2.42-3.1-5.23-2.87-7.85A4.46,4.46,0,0,1,78,202.05c1.94.46,3.54,2.08,4.84,3.68.19.23.36.46.53.7a3.46,3.46,0,0,0,5.62.1,25.6,25.6,0,0,0,3.7-6.9,85.85,85.85,0,0,1-9.79-10.73c-7.78-.09-19.49,4.37-25.36,7.42a4.62,4.62,0,0,0-.86,7.59A9.47,9.47,0,0,1,57.81,205c2.08,2.44,3.48,5.82,2.85,8.69-.8,3.69-4.81,5.3-8.43,4.31s-6.81-3.95-9.38-7.2a45.4,45.4,0,0,1-8.16-16.13c-1-3.87-1.51-8.07,0-11.3a6,6,0,0,1,8.75-2.8c2.25,1.49,3.54,4.29,4.45,6.93.13.37.24.75.35,1.13a4.68,4.68,0,0,0,7.1,2.73c5.23-3.45,14.43-10.82,18.4-17.31a84.39,84.39,0,0,1-5.82-16,28.07,28.07,0,0,0-8.14-.1,3.65,3.65,0,0,0-2.69,5.41,7.52,7.52,0,0,1,.55,1.15c.88,2.38,1,5.27-.23,7.23-1.6,2.53-5,2.64-7.43.93s-4-4.78-5-7.89a35.91,35.91,0,0,1-1.7-14.2,20,20,0,0,1,.78-4.31,9.53,9.53,0,0,1,2.27-4.09,4.77,4.77,0,0,1,7.26.29c1.27,1.71,1.47,4.14,1.44,6.35,0,.31,0,.62-.05.93a2.09,2.09,0,0,0,0,.25,3.69,3.69,0,0,0,4.55,3.7A27.4,27.4,0,0,0,66,151.3l.5-.26a86.17,86.17,0,0,1-1.13-13.81c0-2.19.11-4.36.27-6.51a32,32,0,0,0-16.08-8.54A4.61,4.61,0,0,0,44,127.43a10.1,10.1,0,0,1,.16,1.62c0,3.19-1.08,6.68-3.4,8.48-3,2.31-7.09,1-9.24-2.11S28.84,128,29,123.87a45.55,45.55,0,0,1,4.12-17.6c1.68-3.64,4-7.16,7.26-8.67a6,6,0,0,1,8.5,3.49c.77,2.58,0,5.55-1,8.16-.14.37-.3.73-.46,1.1A4.68,4.68,0,0,0,51,117a31.73,31.73,0,0,0,17.43-2.59,84.49,84.49,0,0,1,6.88-17.17,24.45,24.45,0,0,0-5.48-4.73A3.21,3.21,0,0,0,65,94.63a7.11,7.11,0,0,1-.28,1.08c-.75,2.1-2.29,4.11-4.24,4.73-2.5.8-4.85-1-5.52-3.57S55,91.4,56,88.73a31.54,31.54,0,0,1,6.87-10.51c2-2,4.33-3.71,6.79-3.93a4.19,4.19,0,0,1,4.72,4.29c-.11,1.87-1.34,3.62-2.62,5.09-.17.2-.36.4-.56.6a3.24,3.24,0,0,0,.83,5.21,24.28,24.28,0,0,0,6.54,2.21A85.52,85.52,0,0,1,91.16,76.27a26,26,0,0,0-5.38-12.53,3.68,3.68,0,0,0-6.09.38A9.55,9.55,0,0,1,79,65.19c-1.64,2-4.1,3.54-6.45,3.45-3-.12-4.84-3-4.57-6s2.17-5.91,4.37-8.38a36.38,36.38,0,0,1,11.57-8.68c2.9-1.36,6.15-2.31,8.9-1.58a4.83,4.83,0,0,1,3.42,6.51c-.86,2-2.88,3.39-4.83,4.47-.28.15-.56.3-.85.43a3.75,3.75,0,0,0-1.16,6,25.81,25.81,0,0,0,11.09,7.13,84.78,84.78,0,0,1,18.77-10.28,21.94,21.94,0,0,0-1-5.27,2.8,2.8,0,0,0-4.43-1.31,6,6,0,0,1-.8.58,6.6,6.6,0,0,1-5.48.78c-2.12-.87-2.65-3.42-1.68-5.48s3.07-3.65,5.27-4.84a27.6,27.6,0,0,1,10.48-3.17c2.42-.22,5,0,6.74,1.18a3.65,3.65,0,0,1,.74,5.52,8,8,0,0,1-4.59,1.92c-.24,0-.47.07-.71.09a2.83,2.83,0,0,0-2.37,4,21.43,21.43,0,0,0,2.5,4.37A84.88,84.88,0,0,1,142,52.73a31.93,31.93,0,0,0,5.6-17.29,4.62,4.62,0,0,0-6.14-4.54,10.12,10.12,0,0,1-1.56.44c-3.14.57-6.77.1-8.94-1.88-2.8-2.54-2.19-6.81.48-9.46s6.83-3.92,10.92-4.52a45.15,45.15,0,0,1,18.05,1c3.88,1,7.75,2.72,9.8,5.64a6,6,0,0,1-2,9c-2.41,1.21-5.48.93-8.22.4-.39-.08-.77-.17-1.16-.27A4.68,4.68,0,0,0,152.92,36a31.75,31.75,0,0,0,5.58,16.72,84.84,84.84,0,0,1,15.79,3.08,19.21,19.21,0,0,0,7.2-9A2.79,2.79,0,0,0,178.94,43a5.19,5.19,0,0,1-1-.08,6.5,6.5,0,0,1-4.7-2.92c-1.07-2,.17-4.32,2.23-5.28s4.7-.81,7.15-.31A27.4,27.4,0,0,1,192.7,38.7c2,1.38,3.85,3.15,4.41,5.23a3.66,3.66,0,0,1-3,4.7,8,8,0,0,1-4.75-1.47l-.61-.39a2.83,2.83,0,0,0-4.35,1.5,19,19,0,0,0-.15,11.18,85.5,85.5,0,0,1,13.93,7.73,31.88,31.88,0,0,0,15.41-9.64,4.61,4.61,0,0,0-1.78-7.42,10,10,0,0,1-1.48-.67c-2.78-1.58-5.25-4.28-5.64-7.19-.51-3.75,2.7-6.62,6.44-6.94s7.76,1.39,11.28,3.56a45.41,45.41,0,0,1,13.19,12.37c2.31,3.27,4.18,7.06,3.87,10.61a6,6,0,0,1-7.27,5.62c-2.62-.62-4.79-2.81-6.55-5-.24-.3-.48-.62-.71-1a4.69,4.69,0,0,0-7.61-.13,31.81,31.81,0,0,0-6.48,16.42,84.31,84.31,0,0,1,10.32,12.8A22.56,22.56,0,0,0,234.37,88a3.29,3.29,0,0,0,.62-5.41,7.1,7.1,0,0,1-.83-.81c-1.48-1.74-2.47-4.15-2-6.2.58-2.63,3.43-3.78,6-3.07s4.86,2.82,6.69,5.13a32.45,32.45,0,0,1,5.82,11.51c.75,2.76,1.08,5.76,0,8.06a4.3,4.3,0,0,1-6.24,2c-1.61-1.06-2.53-3.06-3.18-4.94-.09-.27-.17-.54-.25-.81a3.33,3.33,0,0,0-5.06-2,22.45,22.45,0,0,0-8.66,10.09,84.71,84.71,0,0,1,4.36,11.55,35.4,35.4,0,0,0,20.67,3.07,5.15,5.15,0,0,0,3.8-7.63,11,11,0,0,1-.78-1.63c-1.25-3.36-1.42-7.44.33-10.21,2.26-3.58,7.07-3.73,10.5-1.31s5.64,6.75,7.1,11.14A50.52,50.52,0,0,1,275.66,126.62Z"/><path class="cls-3" d="M137.63,82c.1,3-2.62,5.61-6.23,8.29-1.83,1.32-3.9,2.73-6.15,4.13s-4.63,2.92-7.16,4.47-4.88,3.1-7.17,4.47-4.42,2.64-6.41,3.7c-4,2.07-7.57,3.35-10.18,2s-3.49-5.46-1.63-11.06a28.83,28.83,0,0,1,5-8.81,37.78,37.78,0,0,1,20.64-12.88,29,29,0,0,1,10.1-.59C134.26,76.43,137.55,79.12,137.63,82Z"/><path class="cls-3" d="M95.74,163.9c-2.13.7-4.88-.93-7.24-4.56a32.93,32.93,0,0,1-.75-31.4c2.2-3.74,4.87-5.49,7-4.89s3.55,3.3,4.4,6.94a69,69,0,0,1,1.36,13.36,69.42,69.42,0,0,1-.73,13.41C99.12,160.43,97.91,163.19,95.74,163.9Z"/><path class="cls-3" d="M159.06,198.05c.26,2-1.68,4.23-5.35,5.73a30.32,30.32,0,0,1-28.39-4.6c-3-2.58-4.16-5.28-3.28-7.13s3.56-2.66,7-2.83a62.34,62.34,0,0,1,12.31,1,62.44,62.44,0,0,1,12,2.93C156.53,194.4,158.8,196,159.06,198.05Z"/><path class="cls-3" d="M198.88,129.52c4,5.36-3.74,17.89-17.28,28s-27.76,13.93-31.76,8.57,3.75-17.89,17.29-28S194.89,124.16,198.88,129.52Z"/><path class="cls-3" d="M138.38,113.94c2.43,1,3.53,4.38,3.81,8.78a69.36,69.36,0,0,1-1.29,15.85,69.05,69.05,0,0,1-4.26,15.33c-1.78,4-4,6.77-6.61,6.92s-5.17-2.48-6.83-7.14-2.28-11.31-1-18.44,4.15-13.18,7.31-17S136,112.91,138.38,113.94Z"/><path class="cls-3" d="M127.53,179.72c-.57,1-2.22,1.35-4.43.69a16,16,0,0,1-10.43-13c-.17-2.3.52-3.84,1.63-4.19s2.48.45,3.89,1.73a45.11,45.11,0,0,1,4.55,5.06,44.7,44.7,0,0,1,4,5.52C127.64,177.2,128.13,178.68,127.53,179.72Z"/><path class="cls-3" d="M121.09,110.26c1.64,1.57,0,6-3,10.36s-6.55,7.51-8.6,6.54S107.88,121,111.33,116,119.48,108.71,121.09,110.26Z"/><path class="cls-3" d="M182.56,97.29c-.81,2.13-3.62,3.22-7.32,3.71a68.45,68.45,0,0,1-13.44.07A67.68,67.68,0,0,1,148.52,99c-3.59-1-6.21-2.53-6.69-4.76s1.43-4.75,5.27-6.73a33,33,0,0,1,31.25,2.34C181.86,92.38,183.35,95.2,182.56,97.29Z"/><path class="cls-3" d="M178.54,74.93c-.51,1.12-2,1.6-4,1.77a40,40,0,0,1-7.08-.24,39.22,39.22,0,0,1-7-1.23c-1.89-.57-3.28-1.36-3.54-2.55s.75-2.54,2.83-3.59a17.15,17.15,0,0,1,16.74,1.75C178.32,72.29,179,73.85,178.54,74.93Z"/><path class="cls-3" d="M212.18,122.3c-2,.21-4-1.57-6-4.07a103.91,103.91,0,0,1-6.27-9.45,101.89,101.89,0,0,1-5.57-9.87c-1.33-2.91-2-5.48-.9-7.2s4-2.1,7.7-.62A21,21,0,0,1,207,94.72a27.7,27.7,0,0,1,8.66,14.13,21.09,21.09,0,0,1,.58,6.87C215.84,119.72,214.15,122.1,212.18,122.3Z"/><path class="cls-3" d="M200.67,175.49c-1.06-1.23-.81-3.33-.07-5.77a76.23,76.23,0,0,1,3.36-8.4,77.6,77.6,0,0,1,4-8.1c1.33-2.18,2.72-3.77,4.35-3.8s3.13,1.69,3.82,4.8a20.86,20.86,0,0,1-9.33,20.91C204,176.69,201.71,176.68,200.67,175.49Z"/><path class="cls-3" d="M187.77,185.58c.89.79.87,2.49-.16,4.55a17.52,17.52,0,0,1-14.23,8.77c-2.31,0-3.83-.76-4.14-1.91s.57-2.52,2-3.88a36.76,36.76,0,0,1,5.78-4.22,36.35,36.35,0,0,1,6.36-3.26C185.26,185,186.86,184.77,187.77,185.58Z"/><path class="cls-3" d="M187.57,117.54c.36,3.73-7.31,7.52-17.17,7.56s-17.57-3.67-17.24-7.4,8-6.18,17.18-6.24S187.21,113.77,187.57,117.54Z"/><path class="cls-3" d="M184.2,170.09c1.2,1.32.89,3.9-1.18,6.82a24.28,24.28,0,0,1-24.27,8.51c-3.43-1-5.28-2.81-5.17-4.6s2-3.33,4.55-4.69a75,75,0,0,1,9.62-3.92,73.59,73.59,0,0,1,9.95-2.94C180.57,168.72,183,168.72,184.2,170.09Z"/><path class="cls-3" d="M113,192.07c-.92,1.29-3,1.58-5.74.76a23,23,0,0,1-14-14.7c-.69-2.74-.3-4.85,1-5.7s3.36-.39,5.58.87a33.37,33.37,0,0,1,7,5.82,32.57,32.57,0,0,1,5.47,7.34C113.58,188.73,114,190.76,113,192.07Z"/><path class="cls-4" d="M187,188c.76,3.95-.6,8.2-4.55,12.2s-10.51,7.49-19.29,9.26a61.33,61.33,0,0,1-14.57,1,72.45,72.45,0,0,1-16.69-2.85,78.82,78.82,0,0,1-53.67-54.8,72.84,72.84,0,0,1-2.51-16.74,61.84,61.84,0,0,1,1.35-14.54c2-8.75,5.59-15.25,9.67-19.1s8.36-5.14,12.28-4.29,7.33,3.64,10.39,7.2a131.47,131.47,0,0,1,9,12.63c6,9.34,13.16,19.61,21.46,28.11s18.45,15.82,27.66,22a131.14,131.14,0,0,1,12.44,9.3C183.55,180.63,186.26,184,187,188Z"/><polygon points="235.92 111.55 225.35 111.55 200.79 111.55 199.47 111.55 178.09 111.55 167.53 111.55 155.4 111.55 144.83 111.55 132.7 111.55 122.14 111.55 110.01 111.55 99.44 111.55 87.31 111.55 76.75 111.55 54.05 111.55 54.05 158.43 76.75 158.43 87.31 158.43 110.01 158.43 110.01 153.22 115.21 158.43 122.14 158.43 132.7 158.43 144.83 158.43 151.82 158.43 151.82 158.85 185.09 158.85 185.09 158.43 200.79 158.43 200.79 151.3 214 151.3 214 158.43 225.35 158.43 235.92 158.43 258.62 158.43 258.62 111.55 235.92 111.55"/><polygon points="298.6 183.71 286.23 196.07 298.6 196.07 298.6 245.22 252.5 229.48 252.5 229.62 62.22 229.62 62.22 229.48 16.12 245.22 16.12 134.38 26.37 137.88 47.12 144.96 58.03 148.69 62.22 150.12 62.22 149.98 252.5 149.98 252.5 150.12 260.25 147.47 283.98 139.37 298.6 134.38 298.6 183.71"/><path class="cls-2" d="M79.76,119.1v6.81H73v-2.27H68.41v22.7H73v-2.27h6.81v6.8H61.6V119.1Z"/><path class="cls-2" d="M102.46,119.1v31.77H84.3V119.1Zm-6.81,4.54H91.11v22.7h4.54Z"/><path class="cls-2" d="M113.8,119.1v20.43l4.54,4.54v-25h6.81v31.77h-6.81L107,139.53V119.1Z"/><path class="cls-2" d="M129.69,119.1h18.15v31.77H141V137.26H136.5v13.61h-6.81ZM141,132.72v-9.08H136.5v9.08Z"/><path class="cls-2" d="M170.54,119.1v11.35L159.19,141.8v9.07h-6.81V119.1Zm-6.81,4.54h-4.54V135l4.54-4.54Z"/><path class="cls-2" d="M193.24,119.1v11.35L181.89,141.8v4.54h4.54V141.8h6.81v9.07H175.08V119.1Zm-6.81,4.54h-4.54V135l4.54-4.54Z"/><path class="cls-2" d="M215.93,137.26H197.77v-4.54h18.16Z"/><path class="cls-2" d="M228.37,119.1v31.77h-6.81V123.64H218.2l4.54-4.54Z"/><path class="cls-1" d="M149.65,181.9,138,193.52,149.65,205v18.44H135.82V205l-4.61-4.61L126.6,205v18.44H112.77V158.85h36.88ZM126.6,168.07v23.05l9.22-9.22V168.07Z"/><path class="cls-2" d="M232.9,150.87v-6.8h6.81v2.27h4.54v-9.08h-6.81l-4.54-4.54V119.1h18.16v31.77Zm6.81-18.15h4.54v-9.08h-4.54Z"/><path class="cls-1" d="M57.45,158.85v13.83H43.62v-4.61H34.4v46.1h9.22V195.73H39v-9.22H57.45v36.88L20.57,236V146.26Z"/><path class="cls-1" d="M66.67,158.85h36.88v64.54H89.72V195.73H80.5v27.66H66.67Zm23,27.66V168.07H80.5v18.44Z"/><path class="cls-1" d="M158.86,158.85h36.88v64.54H181.91V195.73h-9.22v27.66H158.86Zm23,27.66V168.07h-9.22v18.44Z"/><path class="cls-1" d="M241.84,158.85v13.83H228v-4.61h-9.22v46.1H228V195.73H223.4v-9.22h18.44v36.88H205V158.85Z"/><path class="cls-5" d="M149.65,181.9,138,193.52,149.65,205v18.44H135.82V205l-4.61-4.61L126.6,205v18.44H112.77V158.85h36.88ZM126.6,168.07v23.05l9.22-9.22V168.07Z"/><path class="cls-1" d="M287.94,146.26V181.9l-23.05,23v9.22h9.22V205h13.83v31l-36.88-12.59V158.85Zm-13.83,18-9.22,3.78v23.05l9.22-9.22Z"/><path class="cls-5" d="M57.45,158.85v13.83H43.62v-4.61H34.4v46.1h9.22V195.73H39v-9.22H57.45v36.88L20.57,236V146.26Z"/><path class="cls-5" d="M66.67,158.85h36.88v64.54H89.72V195.73H80.5v27.66H66.67Zm23,27.66V168.07H80.5v18.44Z"/><path class="cls-5" d="M158.86,158.85h36.88v64.54H181.91V195.73h-9.22v27.66H158.86Zm23,27.66V168.07h-9.22v18.44Z"/><path class="cls-5" d="M241.84,158.85v13.83H228v-4.61h-9.22v46.1H228V195.73H223.4v-9.22h18.44v36.88H205V158.85Z"/><path class="cls-5" d="M287.94,146.26V181.9l-23.05,23v9.22h9.22V205h13.83v31l-36.88-12.59V158.85Zm-13.83,18-9.22,3.78v23.05l9.22-9.22Z"/><polygon class="cls-6" points="160.87 190.91 193.74 190.91 193.74 221.34 183.9 221.34 183.9 193.72 170.68 193.72 170.68 221.34 160.87 221.34 160.87 190.91"/><polygon class="cls-6" points="114.76 190.91 124.6 190.91 124.6 195.91 129.62 190.89 137.79 190.89 135.17 193.52 147.65 205.78 147.65 221.38 137.81 221.38 137.81 204.1 131.21 197.5 124.59 204.12 124.59 221.38 114.76 221.38 114.76 190.91"/><path d="M182.38,307.94a31.32,31.32,0,0,1-18.19-5.79,16.25,16.25,0,0,1-10.7,3.58,22.68,22.68,0,0,1-10.21-2.47A30.53,30.53,0,0,1,129,287a22.18,22.18,0,0,1-8,1.47,22.9,22.9,0,0,1-16.06-6.37c-4.56,3.33-10.76,5-18.79,5-2.4,0-5-.14-8.16-.43C75,286.39,71,286,67.65,283.73a11.33,11.33,0,0,1-3.7-4.31,49,49,0,0,1-21.22,4.85,47.13,47.13,0,0,1-15.41-2.56c-8.63-3-14.47-8.52-16-15.15a16.25,16.25,0,0,1,15.51-19.74,15.65,15.65,0,0,1,7.64,2.26,36.75,36.75,0,0,0,.86-4.3c.72-4.63,1.54-9.88,8.8-13.76a19.83,19.83,0,0,1,9.34-2.29,21.22,21.22,0,0,1,12.48,4A21.13,21.13,0,0,1,82,225.5a19.08,19.08,0,0,1,8.6,2,24.29,24.29,0,0,1,10.09-2.15,26.13,26.13,0,0,1,14.87,4.46,29.32,29.32,0,0,1,8.4-8.22,56.92,56.92,0,0,1,31.74-9.67,55.19,55.19,0,0,1,12.07,1.33c9.2,2.06,16.42,6.65,20.39,12.73,2.94-2,7.18-3.4,13.33-3.4a47.18,47.18,0,0,1,7,.55c3,.45,6.52,1.1,9.53,3.13a12.3,12.3,0,0,1,3.94,4.3,21.25,21.25,0,0,1,7.24-1.24,22.1,22.1,0,0,1,17.11,7.79c6.79-3.82,12.74-4.55,20.59-4.55,1.53,0,4,1.67,5.49,1.83,7.2.75,12.94,3.17,17,7.23,4.84,4.87,7.77,9.34,5.66,15.15a21.57,21.57,0,0,1-1.46,15.11,21.29,21.29,0,0,1-12.45,11.23,19.61,19.61,0,0,1-5.94.91,22.59,22.59,0,0,1-16.25-7.13,24.87,24.87,0,0,1-9.11,8.64c-6.42,3.62-13.62,4.54-19.82,5-1.56.1-3,.16-4.4.16-6,0-10.9-1-14.78-3.06a31.13,31.13,0,0,1-18.5,18.68A29.55,29.55,0,0,1,182.38,307.94Z"/><path class="cls-1" d="M66.7,240c3.61-8.76,16-12.4,23.78-7,8.31-5,20.12-2.93,26.29,4.54,1.19-5,5.19-8.82,9.43-11.71a52.71,52.71,0,0,1,40.68-7.75c8.71,2,17.66,7.1,20.06,15.7,4-6.59,13.34-6.9,20.95-5.77,2.75.41,5.58.95,7.89,2.5s4,4.39,3.32,7.1c8-6.36,21.55-3.28,26,5.91A41.76,41.76,0,0,1,273,236.41c5.42.56,10.93,2.34,14.77,6.2s5.55,10.13,3,15c3.4,8.76-1.9,19.84-10.85,22.71s-19.69-3.09-22-12.2c-.15,6.28-4.56,11.87-10,14.95s-11.87,4-18.13,4.45c-7.64.53-16.32-.07-21.36-5.84a26.42,26.42,0,0,1-44.67,15.89c-3.33,6.12-12.39,6.37-18.58,3.18a26.32,26.32,0,0,1-13.64-18.63c-7.9,6.1-20.9,3.72-26.12-4.78-6.25,7.34-17.43,7.24-27,6.37-2.92-.26-6-.6-8.42-2.25s-3.92-5.09-2.44-7.64a44.36,44.36,0,0,1-38.83,5.15c-6-2.08-12-6.12-13.46-12.29-1.73-7.32,4.15-14.82,11.63-14.82,6.4,0,9.18,7,11.36-.23,2-6.72.25-12,7.82-16A16.88,16.88,0,0,1,66.7,240Z"/><path class="cls-6" d="M195.19,250.47a12.05,12.05,0,0,0-.41,4.35A12.3,12.3,0,0,0,195.19,250.47Z"/><path class="cls-6" d="M123.46,260.21a10.6,10.6,0,0,0,1.83-2.82A8.26,8.26,0,0,0,123.46,260.21Z"/><path class="cls-6" d="M140,267.94a6.11,6.11,0,0,0,.27-.58Z"/><path class="cls-6" d="M254.38,255a8.91,8.91,0,0,0-.57-1.36A9.53,9.53,0,0,0,254.38,255Z"/><path class="cls-6" d="M287.71,242.61c-3.46-3.49-8.28-5.27-13.17-6a16.86,16.86,0,0,1,4,9.91c.29,6.2-3.68,12.55-9.61,14.43-5.45,1.72-12-.94-14.55-6,2.29,7.08-4.43,15.91-12,14.9-4.69,3.6-10.49,6.48-16.33,5.57s-11.05-7-9.16-12.6a12.81,12.81,0,0,1-22.09-8,12.63,12.63,0,0,1-19,7.49c.1,7.43-2.44,15.1-7.89,20.16s-14,7-20.64,3.68c-6.47-3.19-10.11-11.63-7.27-18.21-2.33,4.59-9,6.47-13.3,3.58-3.55-2.36-4.74-7.41-3.2-11.31a11.34,11.34,0,0,1-19.95-7.49c-.75,8.8-6.92,17.57-15.64,19s-18.14-7.35-15.59-15.8c-3,3.57-9.79,2.37-11.38-2-6.81,8-14.58,16.25-24.85,18.59-7.84,1.79-17.19-1.68-21.18-8.1a11.31,11.31,0,0,0,.29,2.29c1.47,6.17,7.47,10.21,13.47,12.29a44.33,44.33,0,0,0,38.82-5.15c-1.48,2.55,0,6,2.44,7.64s5.5,2,8.43,2.25c9.6.87,20.77,1,27-6.37,5.23,8.5,18.22,10.88,26.12,4.78a26.33,26.33,0,0,0,13.65,18.63c6.19,3.19,15.25,2.94,18.57-3.18a26.43,26.43,0,0,0,44.68-15.89c5,5.77,13.71,6.37,21.35,5.84,6.27-.42,12.67-1.38,18.14-4.45s9.88-8.67,10-14.95c2.32,9.11,13.07,15.06,22,12.2s14.24-13.95,10.85-22.71C293.26,252.74,291.55,246.47,287.71,242.61Z"/><path class="cls-6" d="M142.8,233.48c5.44-2.63,12.71-1.39,16.43,3.38a5,5,0,0,1,3.53-3.85,9.25,9.25,0,0,1,5.43.26,10.25,10.25,0,0,1,5.45,3.67,6,6,0,0,1,.45,6.31c3-1.78,2.88-6.25,1.64-9.54-1.4-3.74-3.94-7.33-7.69-8.71s-8.71.27-9.88,4.09a3.35,3.35,0,0,0-1.64-3.31,8.77,8.77,0,0,0-3.74-1.09c-5.2-.67-10.91-.56-15.12,2.58a17.77,17.77,0,0,0-5.74,8.6c-2.14,6.11-2.14,13.51,2.09,18.41-2-2.28-.41-8.75.51-11.23A17,17,0,0,1,142.8,233.48Z"/><path class="cls-6" d="M218.2,249.15a9.94,9.94,0,0,1,8.49,5.25,6.33,6.33,0,0,1,7.51-2.21,8.06,8.06,0,0,1,4.73,6.55,11.22,11.22,0,0,1-2.41,7.93c1.8-2.48.26-6.42-2.59-7.53s-6.28.24-8.14,2.67a7.06,7.06,0,1,0-14-.27c-.34-2.82-3.58-4.63-2-8C211.09,250.75,215.39,249.11,218.2,249.15Z"/><path class="cls-1" d="M197,285.21a9.93,9.93,0,0,1-9.91,1.16,6.32,6.32,0,0,1-4.51,6.39,8.07,8.07,0,0,1-7.78-2.2,11.21,11.21,0,0,1-3-7.71c.12,3.06,3.78,5.19,6.7,4.29s4.77-4.08,4.73-7.14a7.06,7.06,0,1,0,11.13-8.47c2,2,5.69,1.4,6.55,5C201.62,279.54,199.27,283.49,197,285.21Z"/><path class="cls-6" d="M84.59,255.74c1.11-2.26,3.51-4.19,6-3.66s3.69,2.86,4.75,5a8.2,8.2,0,0,0-.37-6A5.56,5.56,0,0,0,90,248a7,7,0,0,0-4.78,2.66A8.31,8.31,0,0,0,80,245.94a17,17,0,0,0-7.2-.5c-2.17.24-4.48.77-5.88,2.44-.91,1.08-2.65,7.85-.5,8.48,1.08.32,2.62-2.88,3.17-3.54,2-2.34,3.72-3.82,7-3.51C78.26,249.46,86,253,84.59,255.74Z"/><polygon class="cls-6" points="22.53 190.91 32.39 190.91 32.39 216.16 45.6 216.16 45.6 193.73 41.01 193.73 41.01 190.91 55.43 190.91 55.43 221.94 22.57 233.18 22.53 190.91"/><polygon class="cls-6" points="68.67 190.91 101.54 190.91 101.54 221.34 91.7 221.34 91.7 193.72 78.48 193.72 78.48 221.34 68.67 221.34 68.67 190.91"/><polygon class="cls-6" points="206.97 190.91 216.79 190.91 216.79 216.16 230.01 216.16 230.01 193.74 225.4 193.74 225.4 190.91 239.84 190.91 239.84 221.39 206.97 221.39 206.97 190.91"/><polygon class="cls-6" points="253.07 190.91 262.89 190.91 262.89 195.94 267.93 190.9 276.1 190.9 262.89 204.11 262.89 216.15 276.1 216.15 276.1 206.97 285.9 206.97 285.9 233.13 253.07 221.98 253.07 190.91"/></g></g></svg>