<svg id="Capa_1" enable-background="new 0 0 512 512" height="512" viewBox="0 0 512 512" width="512" xmlns="http://www.w3.org/2000/svg"><g><g id="Page-1_76_"><g id="_x30_77---FAQ-Page"><path id="Shape_385_" d="m494.933 379.733v-307.2c-.028-23.552-19.114-42.638-42.667-42.667h-392.533c-23.552.028-42.638 19.114-42.667 42.667v307.2c-9.425 0-17.066 7.641-17.066 17.067v25.6c.042 32.972 26.761 59.691 59.733 59.733h392.533c32.972-.042 59.691-26.761 59.733-59.733v-25.6c.001-9.426-7.64-17.067-17.066-17.067zm-460.8-307.2c0-14.138 11.462-25.6 25.6-25.6h392.533c14.138 0 25.6 11.462 25.6 25.6v307.2h-443.733zm145.067 324.267h153.6v8.533c0 9.426-7.641 17.067-17.067 17.067h-119.466c-9.426 0-17.067-7.641-17.067-17.067zm315.733 25.6c-.028 23.552-19.114 42.638-42.667 42.667h-392.533c-23.552-.028-42.638-19.114-42.667-42.667v-25.6h145.067v8.533c0 18.851 15.282 34.133 34.133 34.133h119.467c18.851 0 34.133-15.282 34.133-34.133v-8.533h145.067z"/><path id="Shape_384_" d="m128 413.867h-25.6c-4.713 0-8.533 3.82-8.533 8.533s3.821 8.533 8.533 8.533h25.6c4.713 0 8.533-3.82 8.533-8.533s-3.82-8.533-8.533-8.533z"/><circle id="Oval_41_" cx="51.2" cy="422.4" r="8.533"/><circle id="Oval_40_" cx="76.8" cy="422.4" r="8.533"/><path id="Shape_383_" d="m162.133 217.6h-34.133v-34.133h59.733c4.713 0 8.533-3.821 8.533-8.533 0-4.713-3.821-8.533-8.533-8.533h-68.267c-4.713 0-8.533 3.821-8.533 8.533v102.4c0 4.713 3.821 8.533 8.533 8.533 4.713 0 8.533-3.82 8.533-8.533v-42.667h34.133c4.713 0 8.533-3.82 8.533-8.533s-3.819-8.534-8.532-8.534z"/><path id="Shape_382_" d="m246.81 171.648c-1.325-3.179-4.432-5.25-7.876-5.25s-6.551 2.071-7.876 5.25l-42.667 102.4c-1.814 4.35.241 9.347 4.591 11.162 4.35 1.814 9.347-.241 11.162-4.591l12.032-28.885h45.517l12.032 28.885c1.326 3.178 4.432 5.248 7.876 5.248 1.128.003 2.245-.22 3.285-.657 2.089-.871 3.746-2.537 4.607-4.63s.855-4.443-.016-6.532zm-23.518 63.019 15.642-37.547 15.642 37.547z"/><path id="Shape_381_" d="m349.867 166.4c-28.237 0-51.2 26.803-51.2 59.733s22.963 59.733 51.2 59.733c10.492-.073 20.644-3.728 28.774-10.359l7.859 7.859c3.348 3.234 8.671 3.188 11.962-.104 3.292-3.292 3.338-8.614.104-11.962l-8.422-8.422c7.203-10.894 11.005-23.684 10.923-36.745 0-32.93-22.964-59.733-51.2-59.733zm0 102.4c-18.825 0-34.133-19.14-34.133-42.667s15.309-42.667 34.133-42.667c18.825 0 34.133 19.14 34.133 42.667.049 8.529-2.087 16.927-6.204 24.397l-13.363-13.363c-3.348-3.234-8.671-3.188-11.962.104-3.292 3.292-3.338 8.614-.104 11.962l14.012 14.012c-4.798 3.514-10.566 5.455-16.512 5.555z"/><path id="Shape_380_" d="m452.267 302.933v-153.6c0-14.138-11.462-25.6-25.6-25.6h-341.334c-14.138 0-25.6 11.462-25.6 25.6v153.6c0 14.138 11.462 25.6 25.6 25.6h341.333c14.139 0 25.601-11.461 25.601-25.6zm-375.467 0v-153.6c0-4.713 3.821-8.533 8.533-8.533h341.333c4.713 0 8.533 3.821 8.533 8.533v153.6c0 4.713-3.82 8.533-8.533 8.533h-341.333c-4.712.001-8.533-3.82-8.533-8.533z"/></g></g></g></svg>