<svg id="Capa_1" enable-background="new 0 0 512 512" height="512" viewBox="0 0 512 512" width="512" xmlns="http://www.w3.org/2000/svg"><g><circle cx="256" cy="396" r="30"/><path d="m176 186h40c5.592 0 10.107-4.593 9.998-10.195-.265-13.569 10.896-26.955 24.33-29.223 17.263-2.835 29.563 7.663 33.687 18.619.021.057.044.114.066.171 5.149 12.952-.338 29.143-12.231 36.09-27.212 15.874-46.371 27.315-45.851 73.785v40.753c0 5.522 4.477 10 10 10h40c5.523 0 10-4.478 10-10v-40.847c-.059-15.43 1.976-14.771 7.45-17.346 2.651-1.247 5.947-2.797 9.656-5.132 36.951-22.532 52.478-68.347 36.92-108.986-14.694-38.205-55.013-64.2-100.256-56.169-41.853 7.032-74.523 46.168-73.769 88.657.099 5.453 4.546 9.823 10 9.823z"/><path d="m256 512c141.578 0 256-114.388 256-256 0-141.58-114.389-256-256-256-141.578 0-256 114.388-256 256 0 141.58 114.389 256 256 256zm0-492c130.131 0 236 105.869 236 236s-105.869 236-236 236-236-105.869-236-236 105.869-236 236-236z"/></g></svg>