<?xml version="1.0" encoding="iso-8859-1"?>
<!-- Generator: Adobe Illustrator 19.0.0, SVG Export Plug-In . SVG Version: 6.00 Build 0)  -->
<svg version="1.1" id="Capa_1" xmlns="http://www.w3.org/2000/svg" xmlns:xlink="http://www.w3.org/1999/xlink" x="0px" y="0px"
	 viewBox="0 0 512 512" style="enable-background:new 0 0 512 512;" xml:space="preserve">
<circle style="fill:#5D5360;" cx="430.73" cy="479.492" r="24.381"/>
<path style="fill:#AEA8AF;" d="M422.605,422.606v56.889c0,4.488,3.635,8.127,8.127,8.127s8.127-3.639,8.127-8.127v-56.889H422.605z"
	/>
<circle style="fill:#5D5360;" cx="154.41" cy="479.492" r="24.381"/>
<path style="fill:#AEA8AF;" d="M146.286,422.606v56.889c0,4.488,3.635,8.127,8.127,8.127s8.127-3.639,8.127-8.127v-56.889H146.286z"
	/>
<g>
	<path style="fill:#C0BCC1;" d="M455.113,414.479H138.255c-2.77,0-5.23-1.321-6.762-3.631s-1.802-5.095-0.722-7.647l33.989-80.726
		c-5.113-1.82-10.258-3.531-15.335-5.476l-33.639,79.897c-3.175,7.544-2.365,16.123,2.167,22.945
		c4.524,6.821,12.119,10.893,20.302,10.893h316.859c4.492,0,8.127-3.639,8.127-8.127S459.606,414.479,455.113,414.479z"/>
	<path style="fill:#C0BCC1;" d="M495.455,178.791l0.587-16.246l-59.887-2.181l3.982-49.49l-16.206-1.302l-4.04,50.199l-64.135-2.336
		l1.428-53.597l-16.254-0.436l-1.424,53.442l-66.073-2.407L269.597,92.2l-16.222,1l3.738,60.643l-70.077-2.553l-12.574-67.491
		l-15.984,2.976l11.906,63.909l-72.557-2.643l-0.587,16.246l76.196,2.775l12.519,67.199l-64.231,1.427l0.365,16.246l66.882-1.486
		l13.166,70.669l15.984-2.976l-12.68-68.058l57.525-1.278l4.044,65.603l16.222-1l-4.004-64.964l57.873-1.286l-1.59,59.674
		l16.254,0.437l1.612-60.473l59.62-1.324l-4.461,55.44l16.206,1.302l4.595-57.104l56.754-1.261l-0.365-16.246l-55.079,1.224
		l4.204-52.241L495.455,178.791z M202.425,233.895l-12.338-66.226l68.031,2.478l3.848,62.425L202.425,233.895z M278.227,232.211
		l-3.789-61.47l64.635,2.354l-1.54,57.798L278.227,232.211z M414.305,229.188l-60.497,1.344l1.515-56.845l63.263,2.305
		L414.305,229.188z"/>
</g>
<path style="fill:#C9C6CA;" d="M169.795,331.399c-17.873,0-33.572-11.532-38.81-28.893L62.31,75.969
	c-0.786-2.587-0.23-5.397,1.484-7.496c1.706-2.095,4.389-3.187,7.04-2.952l433.788,40.167c2.198,0.202,4.222,1.294,5.603,3.016
	c1.381,1.726,1.992,3.937,1.706,6.127l-21.81,167.211c-1.984,15.23-14.548,27.095-29.857,28.218L172.85,331.288
	C171.826,331.36,170.802,331.399,169.795,331.399z M81.373,82.819L146.54,297.8c3.325,11.02,13.81,18.167,25.119,17.274
	l287.414-21.028c7.659-0.56,13.937-6.492,14.937-14.111l20.714-158.842L81.373,82.819z"/>
<path style="fill:#E6646E;" d="M49.459,80.574L4.761,35.875c-6.348-6.348-6.348-16.639,0-22.987l0,0
	c6.348-6.348,16.639-6.348,22.987,0l44.699,44.699c6.348,6.348,6.348,16.639,0,22.987l0,0
	C66.098,86.921,55.807,86.921,49.459,80.574z"/>
<path style="fill:#FF8087;" d="M27.747,12.888c-0.415-0.415-0.887-0.729-1.334-1.09c-0.447,0.361-0.919,0.675-1.334,1.09l0,0
	c-6.347,6.348-6.347,16.639,0,22.987l44.699,44.699c0.415,0.415,0.887,0.729,1.334,1.09c0.447-0.361,0.919-0.675,1.334-1.09l0,0
	c6.347-6.347,6.347-16.639,0-22.987L27.747,12.888z"/>
<g>
</g>
<g>
</g>
<g>
</g>
<g>
</g>
<g>
</g>
<g>
</g>
<g>
</g>
<g>
</g>
<g>
</g>
<g>
</g>
<g>
</g>
<g>
</g>
<g>
</g>
<g>
</g>
<g>
</g>
</svg>
